<svg width="276" height="116" viewBox="0 0 276 116" fill="none" xmlns="http://www.w3.org/2000/svg">
<path d="M1.73682 72.0846C21.7693 71.6076 40.3639 65.1502 60.6793 65.1502C77.6314 65.1502 94.0871 65.282 110.376 62.8387C124.815 60.6728 137.862 46.2564 152.111 44.4754C162.725 43.1486 186.037 43.113 191.277 53.5928" stroke="#0078E8" stroke-width="3" stroke-linecap="round"/>
<path d="M163.54 58.2157C172.468 61.7 183.117 71.7157 193.075 72.0845C206.305 72.5746 219.644 72.0845 232.884 72.0845C244.657 72.0845 250.569 67.7452 259.594 61.0409C263.594 58.0693 274.49 42.94 274.49 48.9699" stroke="#0078E8" stroke-width="3" stroke-linecap="round"/>
<path d="M22.54 113.691C44.859 105.188 66.9181 105.37 89.5726 100.336C104.997 96.908 120.04 94.0788 135.802 90.5762" stroke="#0078E8" stroke-width="3" stroke-linecap="round"/>
<path d="M126.556 83.6419C135.832 95.5259 137.744 96.598 149.671 101.62C155.463 104.059 167.5 104.445 173.941 104.445C190.736 104.445 208.07 106.227 223.638 99.3085C230.944 96.0611 233.945 91.4339 241.616 88.7785C246.88 86.9563 251.389 81.5738 254.971 77.9916C262.021 70.9417 267.608 62.7338 272.179 53.5928" stroke="#0078E8" stroke-width="3" stroke-linecap="round"/>
<path d="M212.048 39C208.019 35.978 177.621 14.1016 197.929 9.65923C202.168 8.73203 207.393 11.1077 208.634 15.382C209.797 19.3903 215.912 8.38325 218.601 5.5715C228.96 -5.26372 232.283 11.288 231.981 19.0156C231.567 29.6293 220.485 32.3303 213.71 39" stroke="#0078E8" stroke-width="3" stroke-linecap="round"/>
</svg>
