<svg width="230" height="233" viewBox="0 0 230 233" fill="none" xmlns="http://www.w3.org/2000/svg">
<path d="M1.78316 208.881C2.09395 194.408 5.0311 178.143 16.0955 168.23C23.0495 162 32.1439 153.51 40.3923 149.185C43.8492 147.373 47.3962 148.837 50.9528 149.611C79.5284 155.826 86.8412 187.713 87.6297 213.301" stroke="#0078E8" stroke-width="3" stroke-linecap="round"/>
<path d="M148.895 217.557C151.255 203.614 144.107 189.133 149.064 175.414C150.889 170.362 159.311 163.956 163.747 161.188C169.17 157.804 174.673 156.443 180.816 156.839C186.561 157.209 194.253 157.136 198.545 161.703C203.097 166.547 206.442 174.162 210.245 179.723C212.775 183.423 215.039 190.784 216.235 195.206C218.472 203.478 219.958 212.504 218.121 220.954" stroke="#0078E8" stroke-width="3" stroke-linecap="round"/>
<path d="M171.386 149.893C183.454 148.66 200.941 145.063 203.924 131.346C205.354 124.775 208.11 117.427 208.34 110.712C208.512 105.707 205.308 100.128 203.976 95.367C202.374 89.6383 201.764 89.1274 195.962 87.8655C190.125 86.5957 184.436 82.2077 179.247 79.3351C171.233 74.8981 161.587 83.167 154.342 85.291C147.287 87.3591 135.078 102.108 139.882 110.074C141.932 113.472 144.934 116.89 148.23 119.016C149.976 120.142 150.025 122.703 151.852 123.546C154.473 124.758 158.283 123.251 160.966 123.01C169.733 122.22 162.289 126.692 159.809 128.66C154.606 132.79 153.152 132.916 156.918 138.973C159.005 142.328 160.273 145.098 163.548 147.541C166.299 149.592 168.69 148.487 169.611 152.098" stroke="#0078E8" stroke-width="3" stroke-linecap="round"/>
<path d="M74.517 106.798C66.3638 98.5228 59.4604 89.2708 47.8549 86.7465C44.9225 86.1087 41.9901 85.4709 39.0577 84.833C34.2696 83.7916 33.6355 87.7842 29.8741 90.3215C22.0381 95.6073 19.0157 99.8699 17.0045 109.116C14.0367 122.761 20.6158 133.045 31.9932 140.809C36.9492 144.19 55.5084 156.103 61.6627 149.349C64.779 145.929 66.9451 142.604 69.5111 138.748C72.4789 134.288 72.8153 133.636 67.5605 132.493C63.6429 131.641 59.7254 130.789 55.8079 129.937C53.4493 129.424 62.3259 126.862 64.044 125.826C69.5267 122.52 72.0198 124.236 73.4819 117.514C74.4024 113.281 75.4472 108.296 70.5366 107.228" stroke="#0078E8" stroke-width="3" stroke-linecap="round"/>
<path d="M76.4585 51.4858C82.8866 57.3011 88.204 65.1881 87.1911 74.6536C86.8287 78.0401 86.4664 81.4265 86.104 84.813C85.5976 89.5456 84.4855 90.4819 88.0424 88.0379C99.2562 80.3327 90.0443 61.708 91.1273 51.5874" stroke="#0078E8" stroke-width="3" stroke-linecap="round"/>
<path d="M73.4005 52.6265C61.6883 55.8666 50.7599 55.4023 39.0848 57.0283C34.9988 57.5974 30.3863 56.982 26.5184 58.6196C22.1137 60.4845 15.603 47.8693 13.7282 44.7733C8.60879 36.3189 2.36337 26.9607 5.40232 16.6436C8.23188 7.03732 34.2736 5.22932 42.133 4.91569C49.2597 4.63128 55.9362 5.25095 63.0563 6.01284C69.4274 6.69457 74.2922 9.49373 80.493 10.733C89.799 12.5929 101.811 14.2387 101.248 25.5947C100.644 37.7897 104.598 49.3492 90.8166 54.4901" stroke="#0078E8" stroke-width="3" stroke-linecap="round"/>
<path d="M31.8792 29.1001C39.7237 29.9395 52.4555 32.9668 59.7653 29.1482" stroke="#0078E8" stroke-width="3" stroke-linecap="round"/>
<path d="M38.0487 40.036C47.6388 42.6097 57.0879 43.5413 66.9202 44.5934" stroke="#0078E8" stroke-width="3" stroke-linecap="round"/>
<path d="M127.727 93.6709C122.052 87.9164 117.722 80.5076 116.842 72.6887C116.526 69.8843 115.789 67.0519 116.199 64.2198C116.717 60.6331 119.644 59.4601 119.999 56.1449" stroke="#0078E8" stroke-width="3" stroke-linecap="round"/>
<path d="M127.572 95.122C120.976 88.7285 122.891 83.9855 123.785 75.6334C124.527 68.6988 124.519 65.6056 130.988 63.1925" stroke="#0078E8" stroke-width="3" stroke-linecap="round"/>
<path d="M119.843 57.596C120.761 49.0241 118.669 28.1914 125.897 22.3604C133.945 15.8687 149.02 14.3492 159.029 13.0202C163.038 12.4878 182.001 11.543 185.259 15.5823C189.823 21.2399 189.038 30.1225 191.811 36.6716C193.331 40.2635 192.648 49.4228 192.236 53.2725C191.298 62.0373 185.515 65.0308 176.927 65.2537C168.187 65.4806 160.133 70.7149 150.841 69.7207C146.596 69.2664 132.404 68.8559 130.833 64.6438" stroke="#0078E8" stroke-width="3" stroke-linecap="round"/>
<path d="M146.016 32.5052L146.69 39.9173" stroke="#0078E8" stroke-width="3" stroke-linecap="round"/>
<path d="M153.428 31.8307C153.759 35.67 154.003 38.9749 155.243 42.3007" stroke="#0078E8" stroke-width="3" stroke-linecap="round"/>
<path d="M142.856 48.3147C144.501 48.8224 153.211 52.6329 155.475 50.8067C156.285 50.1531 157.125 46.6206 157.835 45.5137" stroke="#0078E8" stroke-width="3" stroke-linecap="round"/>
<path d="M154.117 26.7834C141.13 20.0536 135.002 27.9578 136.436 41.2583C136.839 45.0028 137.278 54.2835 140.525 56.8843C143.784 59.494 148.119 59.1371 152.335 59.5883C155.543 59.9315 161.107 55.0672 164.412 53.2209C170.286 49.9395 169.401 45.4879 170.084 39.0977C170.646 33.8478 170.332 29.3563 165.69 26.3196C161.359 23.4866 155.833 24.1741 152.853 27.8266" stroke="#0078E8" stroke-width="3" stroke-linecap="round"/>
</svg>
