<svg width="189" height="194" viewBox="0 0 189 194" fill="none" xmlns="http://www.w3.org/2000/svg">
<path d="M66.8334 135.375C57.3344 135.375 54.2179 133.911 47.7085 126.074C43.2202 120.671 35.9065 111.617 33.9227 104.69C32.6692 100.314 30.6436 96.4404 31.0539 91.733C31.7775 83.4326 39.6457 75.6589 43.8038 68.9184C53.364 53.4208 65.874 38.4825 83.727 32.3513C98.1337 27.4037 106.003 27.5127 120.224 35.5311C131.614 41.9534 141.196 46.1324 147.237 58.1867C152.557 68.7999 161.501 81.6881 161.501 93.8793C161.501 101.854 163.673 111.531 158.951 118.204C156.078 122.265 156.151 123.879 152.098 127.585C148.22 131.131 143.096 133.863 138.552 136.488C134.502 138.827 143.225 166.172 145.006 171.147C146.567 175.506 143.411 177.339 139.667 179.414C131.938 183.698 122.33 186.649 114.167 190.544C103.852 195.465 101.261 186.972 96.955 179.096C94.0122 173.714 91.9636 168.057 90.5004 161.926C89.863 159.255 89.1537 147.767 86.1176 146.902C81.639 145.625 77.1794 143.352 72.5708 141.417C70.7058 140.633 65.5494 142.369 65.399 139.668C65.247 136.939 63.9646 133.695 63.9646 138.237" stroke="#0078E8" stroke-width="3" stroke-linecap="round"/>
<path d="M86 146C95.0721 146 104.144 146 113.216 146C117.744 146 120.51 144.358 124.676 142.944C129.206 141.407 134.353 142.352 139 141" stroke="#0078E8" stroke-width="3" stroke-linecap="round"/>
<path d="M95 165.392C104.101 163.463 111.944 156.819 120.714 155.58C125.066 154.965 133.613 149.186 137.54 151.576C139.282 152.637 137.46 158.21 136.349 159.034C130.977 163.019 126.698 166.362 121.429 170.416C117.69 173.292 114.647 173.766 110.714 175.597C109.006 176.392 116.66 174.712 118.571 173.242C123.573 169.395 145 153.655 145 169.631C145 174.157 136.864 180.935 132.143 180.935C128.948 180.935 117.556 185.769 116.429 188" stroke="#0078E8" stroke-width="3" stroke-linecap="round"/>
<path d="M93.8432 146C90.9895 139.248 85.0054 128.221 79.7566 123.072C77.4043 120.764 76.8101 116.491 75.4346 113.492C74.9823 112.506 73.9709 105.467 72.5533 105.64C70.8316 105.852 73.6461 110.12 73.9939 110.666C75.1816 112.53 85.037 113.37 85.1992 110.666C85.3046 108.907 85.1992 98.1486 85.1992 103.599C85.1992 106.921 89.8113 112.58 93.523 108.938C96.0568 106.453 92.9074 96.2929 97.0447 103.599C98.445 106.072 108.039 108.731 108.25 105.012C108.647 97.9933 107.17 106.911 110.011 108.938C113.954 111.752 116.859 104.504 116.894 105.012C117.153 108.832 122.522 106.619 124.097 106.426C128.175 105.926 124.804 99.1528 128.739 107.839C130.557 111.851 131.956 114.006 130.18 118.361C127.028 126.092 128.419 136.251 128.419 144.587" stroke="#0078E8" stroke-width="3" stroke-linecap="round"/>
<path d="M106 146C103.551 140.723 100.147 134.919 99.7778 129.064C99.5341 125.196 96.5931 124.992 94.7654 122.008C93.5014 119.943 92 110.353 92 117.774" stroke="#0078E8" stroke-width="3" stroke-linecap="round"/>
<path d="M117 144C116.75 135.243 115 109.006 115 117.765" stroke="#0078E8" stroke-width="3" stroke-linecap="round"/>
<path d="M60 155C57.0574 158.985 51 164.563 51 170" stroke="#0078E8" stroke-width="3" stroke-linecap="round"/>
<path d="M34 140C30.261 140.57 24 139.607 24 144" stroke="#0078E8" stroke-width="3" stroke-linecap="round"/>
<path d="M2 112H21" stroke="#0078E8" stroke-width="3" stroke-linecap="round"/>
<path d="M19 73C14.4438 71.4434 6.43338 66.9694 2 68.2168" stroke="#0078E8" stroke-width="3" stroke-linecap="round"/>
<path d="M40 48C36.3572 44.9947 33.5814 40.3876 30 38" stroke="#0078E8" stroke-width="3" stroke-linecap="round"/>
<path d="M63 24C61.3242 19.8334 60 6.42914 60 10.9017" stroke="#0078E8" stroke-width="3" stroke-linecap="round"/>
<path d="M162 129C164.821 130.763 170 132.432 170 137" stroke="#0078E8" stroke-width="3" stroke-linecap="round"/>
<path d="M177 106C180.543 102.993 182.738 101 187 101" stroke="#0078E8" stroke-width="3" stroke-linecap="round"/>
<path d="M173 72C174.996 71.4951 182 67.985 182 68" stroke="#0078E8" stroke-width="3" stroke-linecap="round"/>
<path d="M160 49C163.782 44.4504 168.333 40.3959 171.989 35.7936C173.633 33.7227 172.777 36.1652 172.777 37.8788" stroke="#0078E8" stroke-width="3" stroke-linecap="round"/>
<path d="M133 22C133.616 19.4568 137.216 6.22661 139 7.03558" stroke="#0078E8" stroke-width="3" stroke-linecap="round"/>
<path d="M97 16C97.6718 11.1797 98 6.84719 98 2" stroke="#0078E8" stroke-width="3" stroke-linecap="round"/>
</svg>
