<svg width="208" height="140" viewBox="0 0 208 140" fill="none" xmlns="http://www.w3.org/2000/svg">
<path d="M40.9556 116.967C43.2545 102.886 49.7424 79.3528 69.2069 85.12C80.5999 88.4957 96.4308 103.912 96.4308 116.967" stroke="#0078E8" stroke-width="3" stroke-linecap="round"/>
<path d="M169.475 137.967C167.176 123.886 160.688 100.353 141.224 106.12C129.831 109.496 114 124.912 114 137.967" stroke="#0078E8" stroke-width="3" stroke-linecap="round"/>
<path d="M127.356 68.3633C124.144 59.3317 117.041 44.5554 104.969 50.7043C97.9025 54.3035 89.3809 66.394 90.9601 75.0234" stroke="#0078E8" stroke-width="3" stroke-linecap="round"/>
<path d="M57.1358 73.0491C30.0284 77.6772 37.6054 43 62.2724 43C77.3775 43 73.172 75.3606 57.1358 75.3606" stroke="#0078E8" stroke-width="3" stroke-linecap="round"/>
<path d="M153.295 94.0491C180.402 98.6772 172.825 64 148.158 64C133.053 64 137.259 96.3606 153.295 96.3606" stroke="#0078E8" stroke-width="3" stroke-linecap="round"/>
<path d="M111.83 41.142C130.093 40.9986 120.902 18.7139 104.799 21.6608C94.9377 23.4653 101.643 44.6035 112.112 42.6878" stroke="#0078E8" stroke-width="3" stroke-linecap="round"/>
<path d="M22 20V45" stroke="#0078E8" stroke-width="3" stroke-linecap="round"/>
<path d="M196 110V135" stroke="#0078E8" stroke-width="3" stroke-linecap="round"/>
<path d="M12 34C18.3355 34 25.1143 33 31 33" stroke="#0078E8" stroke-width="3" stroke-linecap="round"/>
<path d="M206 124C199.665 124 192.886 123 187 123" stroke="#0078E8" stroke-width="3" stroke-linecap="round"/>
<path d="M11.9322 123V137.898" stroke="#0078E8" stroke-width="3" stroke-linecap="round"/>
<path d="M151.932 2V16.8981" stroke="#0078E8" stroke-width="3" stroke-linecap="round"/>
<path d="M21.8642 129.208H2.00001" stroke="#0078E8" stroke-width="3" stroke-linecap="round"/>
<path d="M142 8.20764H161.864" stroke="#0078E8" stroke-width="3" stroke-linecap="round"/>
</svg>
